<?xml version="1.0" encoding="UTF-8" standalone="no"?>
<!-- Created with Inkscape (http://www.inkscape.org/) -->
<svg
   xmlns:dc="http://purl.org/dc/elements/1.1/"
   xmlns:cc="http://creativecommons.org/ns#"
   xmlns:rdf="http://www.w3.org/1999/02/22-rdf-syntax-ns#"
   xmlns:svg="http://www.w3.org/2000/svg"
   xmlns="http://www.w3.org/2000/svg"
   xmlns:xlink="http://www.w3.org/1999/xlink"
   xmlns:sodipodi="http://sodipodi.sourceforge.net/DTD/sodipodi-0.dtd"
   xmlns:inkscape="http://www.inkscape.org/namespaces/inkscape"
   width="1024"
   height="768"
   id="svg2695"
   sodipodi:version="0.32"
   inkscape:version="0.45+devel"
   version="1.0"
   sodipodi:docname="inkslidetmpl.svg"
   inkscape:output_extension="org.inkscape.output.svg.inkscape"
   enable-background="new">
  <defs
     id="defs2697">
    <filter
       inkscape:collect="always"
       id="filter2937"
       x="-0.14494739"
       width="1.2898948"
       y="-0.23741373"
       height="1.4748275">
      <feGaussianBlur
         inkscape:collect="always"
         stdDeviation="1.995686"
         id="feGaussianBlur2939" />
    </filter>
    <pattern
       patternUnits="userSpaceOnUse"
       width="500"
       height="500"
       id="pattern3306"
       patternTransform="translate(1e-5,0)">
      <image
         xlink:href="/home/tbrown/Desktop/Misc/tilable_backgrounds/elvie.jpg"
         sodipodi:absref="/home/tbrown/Desktop/Misc/tilable_backgrounds/elvie.jpg"
         width="500"
         height="500"
         id="image3303"
         x="0"
         y="0" />
    </pattern>
    <filter
       inkscape:collect="always"
       id="filter3738">
      <feGaussianBlur
         inkscape:collect="always"
         stdDeviation="22.4"
         id="feGaussianBlur3740" />
      <feBlend
         inkscape:collect="always"
         mode="screen"
         in2="BackgroundImage"
         id="feBlend3742" />
    </filter>
  </defs>
  <sodipodi:namedview
     id="base"
     pagecolor="#ffffff"
     bordercolor="#666666"
     borderopacity="1.0"
     gridtolerance="10000"
     guidetolerance="10"
     objecttolerance="10"
     inkscape:pageopacity="0.0"
     inkscape:pageshadow="2"
     inkscape:zoom="0.6640625"
     inkscape:cx="512"
     inkscape:cy="384"
     inkscape:document-units="px"
     inkscape:current-layer="layer5"
     width="1024px"
     height="768px"
     showguides="true"
     inkscape:guide-bbox="true" />
  <metadata
     id="metadata2700">
    <rdf:RDF>
      <cc:Work
         rdf:about="">
        <dc:format>image/svg+xml</dc:format>
        <dc:type
           rdf:resource="http://purl.org/dc/dcmitype/StillImage" />
      </cc:Work>
    </rdf:RDF>
  </metadata>
  <g
     inkscape:groupmode="layer"
     id="layer9"
     inkscape:label="Frames"
     style="display:none"
     sodipodi:insensitive="true">
    <g
       inkscape:groupmode="layer"
       id="layer12"
       inkscape:label="fr_tab3"
       style="display:none">
      <flowRoot
         xml:space="preserve"
         id="fr_tab3"
         style="font-size:28px;font-style:oblique;font-variant:normal;font-weight:normal;font-stretch:normal;text-indent:0;text-align:start;text-decoration:none;line-height:110.00000238%;letter-spacing:normal;word-spacing:normal;text-transform:none;direction:ltr;block-progression:tb;writing-mode:lr-tb;text-anchor:start;opacity:1;fill:#000000;fill-opacity:1;fill-rule:nonzero;stroke:none;stroke-width:1359.56604004;stroke-linecap:butt;stroke-linejoin:miter;marker:none;marker-start:none;marker-mid:none;marker-end:none;stroke-miterlimit:10.43299961;stroke-dasharray:none;stroke-dashoffset:0;stroke-opacity:1;visibility:visible;display:inline;overflow:visible;enable-background:accumulate;font-family:Bitstream Vera Sans"
         inkscape:label="#flowRoot2726"
         transform="translate(42.109589,-40.127702)"><flowRegion
           id="flowRegion3319"><rect
             id="rect3321"
             width="854.53613"
             height="587.31897"
             x="125.71429"
             y="133.71428"
             style="font-size:28px;font-style:oblique;font-variant:normal;font-weight:normal;font-stretch:normal;text-align:start;line-height:110.00000238%;writing-mode:lr-tb;text-anchor:start;fill:#000000;fill-opacity:1;font-family:Bitstream Vera Sans" /></flowRegion><flowPara
           id="flowPara3323">Tab level 3 Sy</flowPara></flowRoot>    </g>
    <g
       inkscape:groupmode="layer"
       id="layer11"
       inkscape:label="fr_tab2"
       style="display:none">
      <flowRoot
         xml:space="preserve"
         id="fr_tab2"
         style="font-size:32px;font-style:normal;font-variant:normal;font-weight:normal;font-stretch:normal;text-indent:0;text-align:start;text-decoration:none;line-height:100%;letter-spacing:normal;word-spacing:normal;text-transform:none;direction:ltr;block-progression:tb;writing-mode:lr-tb;text-anchor:start;opacity:1;fill:#000000;fill-opacity:1;fill-rule:nonzero;stroke:none;stroke-width:1359.56604004;stroke-linecap:butt;stroke-linejoin:miter;marker:none;marker-start:none;marker-mid:none;marker-end:none;stroke-miterlimit:10.43299961;stroke-dasharray:none;stroke-dashoffset:0;stroke-opacity:1;visibility:visible;display:inline;overflow:visible;enable-background:accumulate;font-family:Bitstream Vera Sans"
         inkscape:label="#flowRoot2726"
         transform="translate(6.109589,-38.045519)"><flowRegion
           id="flowRegion2323"><rect
             id="rect2325"
             width="854.53613"
             height="587.31897"
             x="125.71429"
             y="133.71428"
             style="font-size:32px;font-style:normal;font-variant:normal;font-weight:normal;font-stretch:normal;text-align:start;line-height:100%;writing-mode:lr-tb;text-anchor:start;fill:#000000;fill-opacity:1;font-family:Bitstream Vera Sans" /></flowRegion><flowPara
           id="flowPara2327">Tab level 2 Sy</flowPara></flowRoot>    </g>
    <g
       inkscape:groupmode="layer"
       id="layer2"
       inkscape:label="fr_tab1"
       style="display:none">
      <flowRoot
         transform="translate(-31.890411,-41.066692)"
         inkscape:label="#flowRoot2726"
         style="font-size:36px;font-style:oblique;font-variant:normal;font-weight:normal;font-stretch:normal;text-indent:0;text-align:start;text-decoration:none;line-height:110.00000238%;letter-spacing:normal;word-spacing:normal;text-transform:none;direction:ltr;block-progression:tb;writing-mode:lr-tb;text-anchor:start;opacity:1;fill:#000000;fill-opacity:1;fill-rule:nonzero;stroke:none;stroke-width:1359.56604004;stroke-linecap:butt;stroke-linejoin:miter;marker:none;marker-start:none;marker-mid:none;marker-end:none;stroke-miterlimit:10.43299961;stroke-dasharray:none;stroke-dashoffset:0;stroke-opacity:1;visibility:visible;display:inline;overflow:visible;enable-background:accumulate;font-family:Bitstream Vera Sans"
         id="fr_tab1"
         xml:space="preserve"><flowRegion
           id="flowRegion2241"><rect
             style="font-size:36px;font-style:oblique;font-variant:normal;font-weight:normal;font-stretch:normal;text-align:start;line-height:110.00000238%;writing-mode:lr-tb;text-anchor:start;fill:#000000;fill-opacity:1;font-family:Bitstream Vera Sans"
             y="133.71428"
             x="125.71429"
             height="587.31897"
             width="854.53613"
             id="rect2243" /></flowRegion><flowPara
           id="flowPara2245">Tab level 1 Sy</flowPara></flowRoot>    </g>
    <g
       inkscape:groupmode="layer"
       id="layer3"
       inkscape:label="fr_tab0"
       style="display:inline">
      <flowRoot
         xml:space="preserve"
         id="fr_tab0"
         style="font-size:36px;font-style:normal;font-variant:normal;font-weight:normal;font-stretch:normal;text-indent:0;text-align:start;text-decoration:none;line-height:110.00000238%;letter-spacing:normal;word-spacing:normal;text-transform:none;direction:ltr;block-progression:tb;writing-mode:lr-tb;text-anchor:start;opacity:1;fill:#000000;fill-opacity:1;fill-rule:nonzero;stroke:none;stroke-width:1359.56604004;stroke-linecap:butt;stroke-linejoin:miter;marker:none;marker-start:none;marker-mid:none;marker-end:none;stroke-miterlimit:10.43299961;stroke-dasharray:none;stroke-dashoffset:0;stroke-opacity:1;visibility:visible;display:inline;overflow:visible;enable-background:accumulate;font-family:Bitstream Vera Sans"
         inkscape:label="#flowRoot2726"
         transform="translate(-70.689578,-41.066692)"><flowRegion
           id="flowRegion2728"><rect
             id="rect2730"
             width="914.15259"
             height="587.31897"
             x="125.71429"
             y="133.71428"
             style="font-size:36px;font-style:normal;font-variant:normal;font-weight:normal;font-stretch:normal;text-align:start;line-height:110.00000238%;writing-mode:lr-tb;text-anchor:start;fill:#000000;fill-opacity:1;font-family:Bitstream Vera Sans" /></flowRegion><flowPara
           id="flowPara2732">Tab level 0 Sy</flowPara></flowRoot>    </g>
    <g
       inkscape:groupmode="layer"
       id="layer15"
       inkscape:label="fr_title"
       style="display:inline">
      <flowRoot
         transform="translate(-71.890411,-108.76712)"
         inkscape:label="#flowRoot2726"
         style="font-size:40px;font-style:normal;font-variant:normal;font-weight:bold;font-stretch:normal;text-indent:0;text-align:start;text-decoration:none;line-height:110.00000238%;letter-spacing:normal;word-spacing:normal;text-transform:none;direction:ltr;block-progression:tb;writing-mode:lr-tb;text-anchor:start;opacity:1;fill:#000000;fill-opacity:1;fill-rule:nonzero;stroke:none;stroke-width:1359.56604004;stroke-linecap:butt;stroke-linejoin:miter;marker:none;marker-start:none;marker-mid:none;marker-end:none;stroke-miterlimit:10.43299961;stroke-dasharray:none;stroke-dashoffset:0;stroke-opacity:1;visibility:visible;display:inline;overflow:visible;enable-background:accumulate;font-family:Bitstream Vera Sans"
         id="fr_title"
         xml:space="preserve"><flowRegion
           id="flowRegion3330"><rect
             style="font-size:40px;font-style:normal;font-variant:normal;font-weight:bold;font-stretch:normal;text-align:start;line-height:110.00000238%;writing-mode:lr-tb;text-anchor:start;fill:#000000;fill-opacity:1;font-family:Bitstream Vera Sans"
             y="133.71428"
             x="125.71429"
             height="587.31897"
             width="914.15259"
             id="rect3332" /></flowRegion><flowPara
           id="flowPara3334">Title Sy</flowPara></flowRoot>    </g>
  </g>
  <g
     inkscape:groupmode="layer"
     id="layer10"
     inkscape:label="Bullets"
     style="display:none"
     sodipodi:insensitive="true">
    <text
       sodipodi:linespacing="125%"
       id="text2334"
       y="134.09404"
       x="107.4339"
       style="font-size:18px;font-style:normal;font-variant:normal;font-weight:normal;font-stretch:normal;text-indent:0;text-align:start;text-decoration:none;line-height:125%;letter-spacing:normal;word-spacing:normal;text-transform:none;direction:ltr;block-progression:tb;writing-mode:lr-tb;text-anchor:start;opacity:1;fill:#a40000;fill-opacity:1;fill-rule:nonzero;stroke:none;stroke-width:1359.56604004;stroke-linecap:butt;stroke-linejoin:miter;marker:none;marker-start:none;marker-mid:none;marker-end:none;stroke-miterlimit:10.43299961;stroke-dasharray:none;stroke-dashoffset:0;stroke-opacity:1;visibility:visible;display:inline;overflow:visible;enable-background:accumulate;font-family:Bitstream Vera Sans"
       xml:space="preserve"><tspan
         y="134.09404"
         x="107.4339"
         id="tspan2336"
         sodipodi:role="line">Bullet 0:</tspan></text>
    <text
       sodipodi:linespacing="125%"
       id="text2338"
       y="195.69635"
       x="107.4339"
       style="font-size:18px;font-style:normal;font-variant:normal;font-weight:normal;font-stretch:normal;text-indent:0;text-align:start;text-decoration:none;line-height:125%;letter-spacing:normal;word-spacing:normal;text-transform:none;direction:ltr;block-progression:tb;writing-mode:lr-tb;text-anchor:start;opacity:1;fill:#a40000;fill-opacity:1;fill-rule:nonzero;stroke:none;stroke-width:1359.56604004;stroke-linecap:butt;stroke-linejoin:miter;marker:none;marker-start:none;marker-mid:none;marker-end:none;stroke-miterlimit:10.43299961;stroke-dasharray:none;stroke-dashoffset:0;stroke-opacity:1;visibility:visible;display:inline;overflow:visible;enable-background:accumulate;font-family:Bitstream Vera Sans"
       xml:space="preserve"><tspan
         y="195.69635"
         x="107.4339"
         id="tspan2340"
         sodipodi:role="line">Bullet 1:</tspan></text>
    <text
       sodipodi:linespacing="125%"
       id="text2342"
       y="257.29865"
       x="107.4339"
       style="font-size:18px;font-style:normal;font-variant:normal;font-weight:normal;font-stretch:normal;text-indent:0;text-align:start;text-decoration:none;line-height:125%;letter-spacing:normal;word-spacing:normal;text-transform:none;direction:ltr;block-progression:tb;writing-mode:lr-tb;text-anchor:start;opacity:1;fill:#a40000;fill-opacity:1;fill-rule:nonzero;stroke:none;stroke-width:1359.56604004;stroke-linecap:butt;stroke-linejoin:miter;marker:none;marker-start:none;marker-mid:none;marker-end:none;stroke-miterlimit:10.43299961;stroke-dasharray:none;stroke-dashoffset:0;stroke-opacity:1;visibility:visible;display:inline;overflow:visible;enable-background:accumulate;font-family:Bitstream Vera Sans"
       xml:space="preserve"><tspan
         y="257.29865"
         x="107.4339"
         id="tspan2344"
         sodipodi:role="line">Bullet 2:</tspan></text>
    <text
       xml:space="preserve"
       style="font-size:18px;font-style:normal;font-variant:normal;font-weight:normal;font-stretch:normal;text-indent:0;text-align:start;text-decoration:none;line-height:125%;letter-spacing:normal;word-spacing:normal;text-transform:none;direction:ltr;block-progression:tb;writing-mode:lr-tb;text-anchor:start;opacity:1;fill:#a40000;fill-opacity:1;fill-rule:nonzero;stroke:none;stroke-width:1359.56604004;stroke-linecap:butt;stroke-linejoin:miter;marker:none;marker-start:none;marker-mid:none;marker-end:none;stroke-miterlimit:10.43299961;stroke-dasharray:none;stroke-dashoffset:0;stroke-opacity:1;visibility:visible;display:inline;overflow:visible;enable-background:accumulate;font-family:Bitstream Vera Sans"
       x="107.4339"
       y="318.90097"
       id="text3396"
       sodipodi:linespacing="125%"><tspan
         sodipodi:role="line"
         id="tspan3398"
         x="107.4339"
         y="318.90097">Bullet 3:</tspan></text>
    <g
       transform="translate(109.5562,17.213371)"
       inkscape:label="#g2941"
       id="bu_1">
      <rect
         style="opacity:1;fill:none;fill-opacity:1;fill-rule:nonzero;stroke:none;stroke-width:2;stroke-linecap:round;stroke-linejoin:round;marker:none;marker-start:none;marker-mid:none;marker-end:none;stroke-miterlimit:4;stroke-dasharray:none;stroke-dashoffset:0;stroke-opacity:1;visibility:visible;display:inline;overflow:visible;enable-background:accumulate"
         id="rect2352"
         width="8.4106865"
         height="34.185371"
         x="247.9796"
         y="172.01692"
         transform="translate(-109.5562,-18.337058)" />
      <path
         sodipodi:nodetypes="ccccc"
         id="path2348"
         d="M 128.78481,162.68542 L 153.82871,162.68542 C 164.48324,169.41017 164.50786,176.13493 153.82871,182.85968 L 128.78481,182.85968 L 128.78481,162.68542 z"
         style="fill:#000000;fill-opacity:1;fill-rule:nonzero;stroke:none;stroke-width:2;stroke-linecap:round;stroke-linejoin:round;marker:none;marker-start:none;marker-mid:none;marker-end:none;stroke-miterlimit:4;stroke-dashoffset:0;stroke-opacity:1;visibility:visible;display:inline;overflow:visible;filter:url(#filter2937);enable-background:accumulate" />
      <path
         style="fill:#ffd700;fill-opacity:1;fill-rule:nonzero;stroke:none;stroke-width:2;stroke-linecap:round;stroke-linejoin:round;marker:none;marker-start:none;marker-mid:none;marker-end:none;stroke-miterlimit:4;stroke-dashoffset:0;stroke-opacity:1;visibility:visible;display:inline;overflow:visible;enable-background:accumulate"
         d="M 130.78481,160.68542 L 155.82871,160.68542 C 166.48324,167.41017 166.50786,174.13493 155.82871,180.85968 L 130.78481,180.85968 L 130.78481,160.68542 z"
         id="path2350"
         sodipodi:nodetypes="ccccc" />
    </g>
    <g
       transform="matrix(0.8736871,0,0,0.8736871,128.03664,100.51275)"
       inkscape:label="#g2941"
       id="bu_2">
      <rect
         style="opacity:1;fill:none;fill-opacity:1;fill-rule:nonzero;stroke:none;stroke-width:2;stroke-linecap:round;stroke-linejoin:round;marker:none;marker-start:none;marker-mid:none;marker-end:none;stroke-miterlimit:4;stroke-dasharray:none;stroke-dashoffset:0;stroke-opacity:1;visibility:visible;display:inline;overflow:visible;enable-background:accumulate"
         id="rect2353"
         width="9.7044182"
         height="34.196522"
         x="248.15582"
         y="233.79491"
         transform="matrix(1.1445745,0,0,1.1445745,-146.54748,-116.39337)" />
      <path
         sodipodi:nodetypes="ccccc"
         id="path2354"
         d="M 128.78481,162.68542 L 153.82871,162.68542 C 164.48324,169.41017 164.50786,176.13493 153.82871,182.85968 L 128.78481,182.85968 L 128.78481,162.68542 z"
         style="fill:#000000;fill-opacity:1;fill-rule:nonzero;stroke:none;stroke-width:2;stroke-linecap:round;stroke-linejoin:round;marker:none;marker-start:none;marker-mid:none;marker-end:none;stroke-miterlimit:4;stroke-dashoffset:0;stroke-opacity:1;visibility:visible;display:inline;overflow:visible;filter:url(#filter2937);enable-background:accumulate" />
      <path
         style="fill:#ff7300;fill-opacity:1;fill-rule:nonzero;stroke:none;stroke-width:2;stroke-linecap:round;stroke-linejoin:round;marker:none;marker-start:none;marker-mid:none;marker-end:none;stroke-miterlimit:4;stroke-dashoffset:0;stroke-opacity:1;visibility:visible;display:inline;overflow:visible;enable-background:accumulate"
         d="M 130.78481,160.68542 L 155.82871,160.68542 C 166.48324,167.41017 166.50786,174.13493 155.82871,180.85968 L 130.78481,180.85968 L 130.78481,160.68542 z"
         id="path2356"
         sodipodi:nodetypes="ccccc" />
    </g>
    <g
       id="bu_3"
       inkscape:label="#g2941"
       transform="matrix(0.6007521,0,0,0.6007521,167.96889,208.99779)">
      <rect
         style="opacity:1;fill:none;fill-opacity:1;fill-rule:nonzero;stroke:none;stroke-width:2;stroke-linecap:round;stroke-linejoin:round;marker:none;marker-start:none;marker-mid:none;marker-end:none;stroke-miterlimit:4;stroke-dasharray:none;stroke-dashoffset:0;stroke-opacity:1;visibility:visible;display:inline;overflow:visible;enable-background:accumulate"
         id="rect2932"
         width="7.855958"
         height="29.575369"
         x="250.4664"
         y="298.49103"
         transform="matrix(1.6645801,0,0,1.6645801,-279.59767,-350.70496)" />
      <path
         style="fill:#000000;fill-opacity:1;fill-rule:nonzero;stroke:none;stroke-width:2;stroke-linecap:round;stroke-linejoin:round;marker:none;marker-start:none;marker-mid:none;marker-end:none;stroke-miterlimit:4;stroke-dashoffset:0;stroke-opacity:1;visibility:visible;display:inline;overflow:visible;filter:url(#filter2937);enable-background:accumulate"
         d="M 128.78481,162.68542 L 153.82871,162.68542 C 164.48324,169.41017 164.50786,176.13493 153.82871,182.85968 L 128.78481,182.85968 L 128.78481,162.68542 z"
         id="path2899"
         sodipodi:nodetypes="ccccc" />
      <path
         sodipodi:nodetypes="ccccc"
         id="rect2896"
         d="M 130.78481,160.68542 L 155.82871,160.68542 C 166.48324,167.41017 166.50786,174.13493 155.82871,180.85968 L 130.78481,180.85968 L 130.78481,160.68542 z"
         style="fill:#ff0000;fill-opacity:1;fill-rule:nonzero;stroke:none;stroke-width:2;stroke-linecap:round;stroke-linejoin:round;marker:none;marker-start:none;marker-mid:none;marker-end:none;stroke-miterlimit:4;stroke-dashoffset:0;stroke-opacity:1;visibility:visible;display:inline;overflow:visible;enable-background:accumulate" />
    </g>
  </g>
  <g
     inkscape:groupmode="layer"
     id="layer8"
     inkscape:label="Clipart"
     style="display:none" />
  <g
     inkscape:label="Background"
     inkscape:groupmode="layer"
     id="layer1"
     style="display:inline">
    <g
       id="gr_bg"
       inkscape:label="#g2362">
      <rect
         id="rect3309"
         y="-2.2737368e-13"
         x="0"
         height="768"
         width="1024"
         style="fill:url(#pattern3306);stroke:none" />
      <rect
         y="-2.264855e-13"
         x="0"
         height="768"
         width="1024"
         id="rect2759"
         style="opacity:0.9;fill:#ffffff;fill-opacity:1;fill-rule:nonzero;stroke:none;stroke-width:0.89999998;stroke-linecap:round;stroke-linejoin:round;marker:none;marker-start:none;marker-mid:none;marker-end:none;stroke-miterlimit:4;stroke-dasharray:none;stroke-dashoffset:0;stroke-opacity:1;visibility:visible;display:inline;overflow:visible;filter:url(#filter3738);enable-background:accumulate" />
    </g>
  </g>
  <g
     inkscape:groupmode="layer"
     id="layer13"
     inkscape:label="Instance Bottom"
     style="display:inline" />
  <g
     inkscape:groupmode="layer"
     id="layer4"
     inkscape:label="Images"
     style="display:inline"
     sodipodi:insensitive="true" />
  <g
     inkscape:groupmode="layer"
     id="layer5"
     inkscape:label="gr_text"
     style="display:inline"
     sodipodi:insensitive="true" />
  <g
     inkscape:groupmode="layer"
     id="layer7"
     inkscape:label="Title"
     style="display:inline"
     sodipodi:insensitive="true">
    <g
       id="gr_title"
       inkscape:label="#g2350">
      <path
         id="path2351"
         d="M 28.038096,78.019048 L 995.9619,78.019048"
         style="opacity:1;fill:none;fill-opacity:1;fill-rule:evenodd;stroke:#000000;stroke-width:1.50000477;stroke-linecap:round;stroke-linejoin:round;marker:none;marker-start:none;marker-mid:none;marker-end:none;stroke-miterlimit:4;stroke-dasharray:none;stroke-dashoffset:0;stroke-opacity:1;visibility:visible;display:inline;overflow:visible;enable-background:accumulate" />
    </g>
    <use
       x="0"
       y="0"
       xlink:href="#gr_title"
       id="use2353"
       transform="translate(-4,6)"
       width="1024"
       height="768"
       style="opacity:0.19999964" />
  </g>
  <g
     inkscape:groupmode="layer"
     id="layer14"
     inkscape:label="gr_fg">
    <g
       id="g2484"
       transform="matrix(2.3169301,0,0,2.3169301,-131.67804,-688.45958)"
       style="opacity:0.3">
      <path
         id="path1790"
         d="M 466.69088,586.64433 L 451.12888,586.64433 L 451.12888,587.64017 L 451.59482,587.64017 C 453.69245,587.64017 453.92518,587.7465 453.92518,588.6361 L 453.92518,589.2504 L 453.92518,599.33459 L 453.92518,599.94907 C 453.92518,600.83858 453.69245,600.94491 451.59482,600.94491 L 451.12888,600.94491 L 451.12888,601.94065 L 467.02734,601.94065 L 467.54529,596.2837 L 466.40568,596.2837 C 466.06987,597.76657 465.47369,599.08028 464.85241,599.69486 C 464.04945,600.54225 462.57338,600.94491 460.39873,600.94491 L 458.68975,600.94491 C 457.91263,600.94491 457.26569,600.81786 457.03237,600.62703 C 456.85147,600.50054 456.8254,600.37272 456.8254,599.92808 L 456.8254,594.52581 L 457.34326,594.52581 C 458.92248,594.52581 459.57001,594.65285 460.08843,595.0974 C 460.76104,595.64878 461.02011,596.32665 461.07211,597.57633 L 462.28902,597.57633 L 462.28902,590.62758 L 461.07211,590.62758 C 460.94253,592.70366 459.90656,593.53006 457.44641,593.53006 L 456.8254,593.53006 L 456.8254,588.69948 C 456.8254,587.78861 457.05862,587.64017 458.45671,587.64017 L 459.80292,587.64017 C 462.08177,587.64017 463.19503,587.83109 464.07588,588.42437 C 464.93017,588.97509 465.55155,590.16126 465.94029,592.06791 L 467.05368,592.06791 L 466.69088,586.64433 z M 432.32964,595.13989 L 435.25552,595.13989 C 437.58637,595.13989 438.80309,594.99163 439.83925,594.58938 C 441.67716,593.86856 442.71344,592.51292 442.71344,590.8395 C 442.71344,589.22977 441.80674,588.00044 440.09813,587.30149 C 439.08801,586.87811 437.48245,586.64433 435.69581,586.64433 L 426.6333,586.64433 L 426.6333,587.64017 L 427.09924,587.64017 C 429.1966,587.64017 429.42941,587.7465 429.42941,588.6361 L 429.42941,589.2504 L 429.42941,599.33459 L 429.42941,599.94907 C 429.42941,600.83858 429.1966,600.94491 427.09924,600.94491 L 426.6333,600.94491 L 426.6333,601.94065 L 435.33337,601.94065 L 435.33337,600.94491 L 434.6599,600.94491 C 432.56236,600.94491 432.32964,600.83858 432.32964,599.94907 L 432.32964,599.33459 L 432.32964,595.13989 z M 432.32964,594.14424 L 432.32964,588.72079 C 432.32964,587.7465 432.48525,587.64017 433.90922,587.64017 L 435.5666,587.64017 C 438.25929,587.64017 439.52808,588.67849 439.52808,590.9241 C 439.52808,593.10651 438.20756,594.14424 435.46296,594.14424 L 432.32964,594.14424 z M 409.80201,586.34804 L 408.7146,586.34804 L 402.75859,598.69884 C 402.24105,599.80081 402.13768,599.94907 401.74934,600.28776 C 401.33472,600.69051 400.60964,600.94491 399.91029,600.94491 L 399.80705,600.94491 L 399.80705,601.94065 L 406.66866,601.94065 L 406.66866,600.94491 L 406.15065,600.94491 C 404.75299,600.94491 404.05357,600.54225 404.05357,599.73725 C 404.05357,599.48285 404.13133,599.18674 404.28648,598.84774 L 405.14127,596.98311 L 412.00279,596.98311 L 413.40119,599.82221 C 413.55671,600.14 413.60844,600.28776 413.60844,600.3944 C 413.60844,600.73299 412.96044,600.94491 412.00279,600.94491 L 410.91528,600.94491 L 410.91528,601.94065 L 418.94266,601.94065 L 418.94266,600.94491 L 418.58026,600.94491 C 417.28481,600.94491 417.00018,600.77547 416.40502,599.58927 L 409.80201,586.34804 z M 408.5331,589.82258 L 411.45908,595.83933 L 405.65882,595.83933 L 408.5331,589.82258 z M 390.66641,586.49617 L 389.68232,586.49617 L 388.64663,587.7465 C 386.80766,586.64433 385.7986,586.32674 384.06355,586.32674 C 381.5517,586.32674 379.47983,587.15314 377.7194,588.86886 C 376.06224,590.47905 375.28512,592.25843 375.28512,594.44084 C 375.28512,598.9959 378.93603,602.25834 384.03761,602.25834 C 388.18059,602.25834 390.82183,600.26704 391.41755,596.70763 L 390.20046,596.53829 C 389.94157,597.66098 389.6305,598.42344 389.16446,599.05929 C 388.10311,600.52126 386.44573,601.26288 384.3481,601.26288 C 380.51599,601.26288 378.70339,599.08028 378.70339,594.52581 C 378.70339,592.13129 379.09145,590.52144 379.97199,589.2504 C 380.77459,588.06391 382.38014,587.32211 384.03761,587.32211 C 385.8502,587.32211 387.45566,588.1063 388.43957,589.46241 C 388.93164,590.16126 389.32001,590.98748 389.91582,592.61888 L 391.05419,592.61888 L 390.66641,586.49617 z M 364.74664,586.51729 L 363.78889,586.51729 L 362.75293,587.78861 C 361.53574,586.83526 359.87864,586.32674 358.04018,586.32674 C 354.64807,586.32674 352.36959,588.1063 352.36959,590.75503 C 352.36959,593.06384 353.76725,594.20802 357.57358,595.01293 L 360.03361,595.52164 C 361.94996,595.9238 362.13102,595.96619 362.67507,596.30565 C 363.45179,596.79259 363.86601,597.49155 363.86601,598.31785 C 363.86601,599.16515 363.47763,599.8642 362.70111,600.43666 C 361.84623,601.05087 360.99222,601.284 359.56797,601.284 C 357.65153,601.284 356.27919,600.79646 355.06229,599.69486 C 353.97468,598.69884 353.43088,597.70309 353.04269,596.07215 L 351.92934,596.07215 L 352.03257,602.11027 L 353.04269,602.11027 L 354.2075,600.66951 C 355.94255,601.83441 357.39332,602.25834 359.64518,602.25834 C 363.45179,602.25834 365.88588,600.43666 365.88588,597.59732 C 365.88588,596.2837 365.34207,595.16119 364.3327,594.35615 C 363.63319,593.80518 362.62335,593.4451 360.55156,593.02117 L 357.78101,592.44945 C 355.4766,591.96232 354.3889,591.13592 354.3889,589.84357 C 354.3889,588.36089 355.86488,587.34319 358.06575,587.34319 C 359.87864,587.34319 361.35425,587.97944 362.39003,589.18683 C 363.14099,590.05531 363.60694,590.94509 363.94395,592.02571 L 365.05725,592.02571 L 364.74664,586.51729 z M 329.73795,595.01293 L 329.73795,589.2504 L 329.73795,588.6361 C 329.73795,587.7465 329.97071,587.64017 332.06844,587.64017 L 332.56042,587.64017 L 332.56042,586.64433 L 324.04134,586.64433 L 324.04134,587.64017 L 324.50756,587.64017 C 326.60491,587.64017 326.83727,587.7465 326.83727,588.6361 L 326.83727,589.2504 L 326.83727,599.33459 L 326.83727,599.94907 C 326.83727,600.83858 326.60491,600.94491 324.50756,600.94491 L 324.04134,600.94491 L 324.04134,601.94065 L 332.56042,601.94065 L 332.56042,600.94491 L 332.06844,600.94491 C 329.97071,600.94491 329.73795,600.83858 329.73795,599.94907 L 329.73795,599.33459 L 329.73795,596.64415 L 332.74182,594.16563 L 337.2471,599.56772 C 337.66173,600.07612 337.76496,600.24559 337.76496,600.45806 C 337.76496,600.79646 337.27354,600.94491 336.00435,600.94491 L 335.20138,600.94491 L 335.20138,601.94065 L 344.05729,601.94065 L 344.05729,600.94491 L 343.56541,600.94491 C 342.14125,600.94491 341.77826,600.79646 341.02758,599.88569 L 334.7616,592.49184 L 338.62002,589.33536 C 339.86259,588.25456 341.4418,587.64017 342.99554,587.64017 L 342.99554,586.64433 L 335.01998,586.64433 L 335.01998,587.64017 L 335.66789,587.64017 C 336.85932,587.64017 337.35074,587.83109 337.35074,588.27583 C 337.35074,588.57234 336.83288,589.18683 336.08211,589.8009 L 329.73795,595.01293 z M 300.78851,586.64433 L 295.45429,586.64433 L 295.45429,587.64017 L 296.10173,587.64017 C 297.42234,587.64017 298.01796,587.8097 298.484,588.3399 L 298.484,597.3431 C 298.484,600.24559 297.96577,600.85985 295.48026,600.94491 L 295.48026,601.94065 L 302.86048,601.94065 L 302.86048,600.94491 C 300.39986,600.85985 299.88231,600.24559 299.88231,597.3431 L 299.88231,589.4834 L 311.43138,602.23735 L 312.5188,602.23735 L 312.5188,591.24188 C 312.5188,588.3399 313.03625,587.72514 315.52225,587.64017 L 315.52225,586.64433 L 308.14232,586.64433 L 308.14232,587.64017 C 310.60225,587.72514 311.12021,588.3399 311.12021,591.24188 L 311.12021,597.89411 L 300.78851,586.64433 z M 283.95759,589.2504 L 283.95759,588.6361 C 283.95759,587.7465 284.19054,587.64017 286.26182,587.64017 L 286.77978,587.64017 L 286.77978,586.64433 L 278.20888,586.64433 L 278.20888,587.64017 L 278.72683,587.64017 C 280.82428,587.64017 281.05719,587.7465 281.05719,588.6361 L 281.05719,589.2504 L 281.05719,599.33459 L 281.05719,599.94907 C 281.05719,600.83858 280.82428,600.94491 278.72683,600.94491 L 278.20888,600.94491 L 278.20888,601.94065 L 286.77978,601.94065 L 286.77978,600.94491 L 286.26182,600.94491 C 284.19054,600.94491 283.95759,600.83858 283.95759,599.94907 L 283.95759,599.33459 L 283.95759,589.2504 z"
         style="fill:#000000;fill-opacity:1;stroke-width:1pt" />
      <g
         transform="matrix(0.4657141,0,0,0.4657141,284.1543,392.3856)"
         id="inkscape-logo">
        <path
           id="path2313"
           d="M 163.15,27.83 L 28.81,165.3 C -16.58,221.51 59.7,214.97 92.4,231.16 C 104.13,243.15 47.44,252 59.17,264 C 70.9,275.99 130.1,287.1 141.85,299.09 C 153.58,311.08 117.84,323.8 129.57,335.79 C 141.3,347.78 168.43,336.42 173.51,364.1 C 177.13,383.88 222.4,372.6 244.54,356.4 C 256.27,344.4 222.1,345.53 233.83,333.54 C 263,303.71 290.16,322.7 300.14,292.81 C 305.07,278.04 257.2,270.04 268.95,258.05 C 302.7,238.34 419.35,225.51 364,170.16 L 224.75,27.83 C 207.72,11.48 179.3,11.3 163.15,27.83 z M 317.46,292.81 C 317.46,299.63 367.71,304.1 367.71,291.2 C 360.55,270.48 323.4,271.88 317.46,292.81 z M 91.1,329.05 C 103,339.34 121.38,326.49 126.89,312.13 C 115.36,296.81 72.2,312.68 91.1,329.05 z M 311.16,306.82 C 295.82,320.58 312.88,334.54 328,325.65 C 331.37,322.23 327.91,310.24 311.16,306.82 z" />
        <path
           style="fill:#ffffff"
           id="path2315"
           d="M 131,238.6 C 134.59,240.83 188.89,251.86 202.16,254.06 C 206.76,255.03 203.5,259.77 197.16,262.97 C 182.86,266.77 113.5,238.6 131,238.6 z" />
        <path
           style="fill:#ffffff"
           id="path2317"
           d="M 216.63,37.47 L 269.78,91.45 C 274.82,96.6 274.75,106.58 271.93,109.45 L 245.54,88.34 L 240.35,119.6 L 218.3,107.96 L 182.99,130.27 L 171.3,83.24 L 152.33,116.06 L 123.33,116.06 C 111.51,116.06 110.12,101.06 120.86,90.32 C 139.62,70.07 161.15,49.43 172.85,37.47 C 184.61,25.45 205.1,25.79 216.63,37.47 z" />
      </g>
    </g>
  </g>
  <g
     inkscape:groupmode="layer"
     id="layer6"
     inkscape:label="Instance Top"
     style="display:inline" />
</svg>
